<svg width="522" height="357" viewBox="0 0 522 357" fill="none" xmlns="http://www.w3.org/2000/svg">
<rect x="61" y="58" width="461" height="299" fill="#F0F8FF"/>
<path d="M173.56 145.592H157.216V188H147.352V145.592H131.008V136.88H173.56V145.592ZM217.634 188H207.986V166.832C207.986 163.904 207.41 161.72 206.258 160.28C205.154 158.84 203.618 158.12 201.65 158.12C200.498 158.12 199.274 158.456 197.978 159.128C196.682 159.8 195.506 160.736 194.45 161.936C193.442 163.088 192.698 164.432 192.218 165.968V188H182.57V135.44H192.218V157.256C193.61 154.856 195.506 152.984 197.906 151.64C200.306 150.296 202.922 149.624 205.754 149.624C208.202 149.624 210.194 150.056 211.73 150.92C213.266 151.736 214.466 152.864 215.33 154.304C216.194 155.696 216.794 157.28 217.13 159.056C217.466 160.784 217.634 162.584 217.634 164.456V188ZM229.623 188V150.272H239.271V188H229.623ZM229.623 145.016V135.44H239.271V145.016H229.623ZM265.471 188.72C262.255 188.72 259.183 188.192 256.255 187.136C253.327 186.08 250.807 184.52 248.695 182.456L252.151 176.192C254.407 178.016 256.615 179.36 258.775 180.224C260.983 181.088 263.095 181.52 265.111 181.52C266.983 181.52 268.471 181.184 269.575 180.512C270.727 179.84 271.303 178.832 271.303 177.488C271.303 176.576 270.991 175.88 270.367 175.4C269.743 174.872 268.831 174.416 267.631 174.032C266.479 173.648 265.063 173.216 263.383 172.736C260.599 171.824 258.271 170.936 256.399 170.072C254.527 169.208 253.111 168.128 252.151 166.832C251.239 165.488 250.783 163.784 250.783 161.72C250.783 159.224 251.407 157.088 252.655 155.312C253.951 153.488 255.727 152.072 257.983 151.064C260.287 150.056 262.975 149.552 266.047 149.552C268.735 149.552 271.279 149.984 273.679 150.848C276.079 151.664 278.263 153.008 280.231 154.88L276.343 161C274.423 159.512 272.599 158.432 270.871 157.76C269.143 157.04 267.391 156.68 265.615 156.68C264.607 156.68 263.647 156.8 262.735 157.04C261.871 157.28 261.151 157.688 260.575 158.264C260.047 158.792 259.783 159.56 259.783 160.568C259.783 161.48 260.023 162.2 260.503 162.728C261.031 163.208 261.799 163.64 262.807 164.024C263.863 164.408 265.135 164.84 266.623 165.32C269.647 166.184 272.191 167.072 274.255 167.984C276.367 168.896 277.951 170.024 279.007 171.368C280.063 172.664 280.591 174.464 280.591 176.768C280.591 180.512 279.223 183.44 276.487 185.552C273.751 187.664 270.079 188.72 265.471 188.72ZM311.65 188V150.272H321.298V188H311.65ZM311.65 145.016V135.44H321.298V145.016H311.65ZM347.497 188.72C344.281 188.72 341.209 188.192 338.281 187.136C335.353 186.08 332.833 184.52 330.721 182.456L334.177 176.192C336.433 178.016 338.641 179.36 340.801 180.224C343.009 181.088 345.121 181.52 347.137 181.52C349.009 181.52 350.497 181.184 351.601 180.512C352.753 179.84 353.329 178.832 353.329 177.488C353.329 176.576 353.017 175.88 352.393 175.4C351.769 174.872 350.857 174.416 349.657 174.032C348.505 173.648 347.089 173.216 345.409 172.736C342.625 171.824 340.297 170.936 338.425 170.072C336.553 169.208 335.137 168.128 334.177 166.832C333.265 165.488 332.809 163.784 332.809 161.72C332.809 159.224 333.433 157.088 334.681 155.312C335.977 153.488 337.753 152.072 340.009 151.064C342.313 150.056 345.001 149.552 348.073 149.552C350.761 149.552 353.305 149.984 355.705 150.848C358.105 151.664 360.289 153.008 362.257 154.88L358.369 161C356.449 159.512 354.625 158.432 352.897 157.76C351.169 157.04 349.417 156.68 347.641 156.68C346.633 156.68 345.673 156.8 344.761 157.04C343.897 157.28 343.177 157.688 342.601 158.264C342.073 158.792 341.809 159.56 341.809 160.568C341.809 161.48 342.049 162.2 342.529 162.728C343.057 163.208 343.825 163.64 344.833 164.024C345.889 164.408 347.161 164.84 348.649 165.32C351.673 166.184 354.217 167.072 356.281 167.984C358.393 168.896 359.977 170.024 361.033 171.368C362.089 172.664 362.617 174.464 362.617 176.768C362.617 180.512 361.249 183.44 358.513 185.552C355.777 187.664 352.105 188.72 347.497 188.72ZM391.084 176.84C391.084 174.392 391.756 172.256 393.1 170.432C394.492 168.56 396.412 167.12 398.86 166.112C401.308 165.104 404.116 164.6 407.284 164.6C408.868 164.6 410.476 164.72 412.108 164.96C413.74 165.2 415.156 165.584 416.356 166.112V164.096C416.356 161.696 415.636 159.848 414.196 158.552C412.804 157.256 410.716 156.608 407.932 156.608C405.868 156.608 403.9 156.968 402.028 157.688C400.156 158.408 398.188 159.464 396.124 160.856L393.028 154.52C395.524 152.888 398.068 151.664 400.66 150.848C403.3 150.032 406.06 149.624 408.94 149.624C414.316 149.624 418.492 150.968 421.468 153.656C424.492 156.344 426.004 160.184 426.004 165.176V177.2C426.004 178.208 426.172 178.928 426.508 179.36C426.892 179.792 427.492 180.056 428.308 180.152V188C427.444 188.144 426.652 188.264 425.932 188.36C425.26 188.456 424.684 188.504 424.204 188.504C422.284 188.504 420.82 188.072 419.812 187.208C418.852 186.344 418.252 185.288 418.012 184.04L417.796 182.096C416.164 184.208 414.124 185.84 411.676 186.992C409.228 188.144 406.732 188.72 404.188 188.72C401.692 188.72 399.436 188.216 397.42 187.208C395.452 186.152 393.892 184.736 392.74 182.96C391.636 181.136 391.084 179.096 391.084 176.84ZM414.556 178.784C415.084 178.208 415.516 177.632 415.852 177.056C416.188 176.48 416.356 175.952 416.356 175.472V171.656C415.204 171.176 413.956 170.816 412.612 170.576C411.268 170.288 409.996 170.144 408.796 170.144C406.3 170.144 404.236 170.696 402.604 171.8C401.02 172.856 400.228 174.272 400.228 176.048C400.228 177.008 400.492 177.92 401.02 178.784C401.548 179.648 402.316 180.344 403.324 180.872C404.332 181.4 405.532 181.664 406.924 181.664C408.364 181.664 409.78 181.4 411.172 180.872C412.564 180.296 413.692 179.6 414.556 178.784ZM198.019 273V221.88H207.955V264.288H234.019V273H198.019ZM259.872 273.72C256.8 273.72 254.04 273.216 251.592 272.208C249.144 271.152 247.056 269.712 245.328 267.888C243.648 266.064 242.352 263.976 241.44 261.624C240.528 259.272 240.072 256.8 240.072 254.208C240.072 251.568 240.528 249.072 241.44 246.72C242.352 244.368 243.648 242.28 245.328 240.456C247.056 238.632 249.144 237.216 251.592 236.208C254.04 235.152 256.8 234.624 259.872 234.624C262.944 234.624 265.68 235.152 268.08 236.208C270.528 237.216 272.616 238.632 274.344 240.456C276.072 242.28 277.368 244.368 278.232 246.72C279.144 249.072 279.6 251.568 279.6 254.208C279.6 256.8 279.144 259.272 278.232 261.624C277.368 263.976 276.072 266.064 274.344 267.888C272.664 269.712 270.6 271.152 268.152 272.208C265.704 273.216 262.944 273.72 259.872 273.72ZM250.008 254.208C250.008 256.416 250.44 258.384 251.304 260.112C252.168 261.792 253.344 263.112 254.832 264.072C256.32 265.032 258 265.512 259.872 265.512C261.696 265.512 263.352 265.032 264.84 264.072C266.328 263.064 267.504 261.72 268.368 260.04C269.28 258.312 269.736 256.344 269.736 254.136C269.736 251.976 269.28 250.032 268.368 248.304C267.504 246.576 266.328 245.232 264.84 244.272C263.352 243.312 261.696 242.832 259.872 242.832C258 242.832 256.32 243.336 254.832 244.344C253.344 245.304 252.168 246.648 251.304 248.376C250.44 250.056 250.008 252 250.008 254.208ZM304.472 273.216C301.976 273.216 299.672 272.736 297.56 271.776C295.496 270.768 293.696 269.376 292.16 267.6C290.672 265.824 289.52 263.784 288.704 261.48C287.888 259.176 287.48 256.728 287.48 254.136C287.48 251.4 287.912 248.856 288.776 246.504C289.64 244.152 290.84 242.088 292.376 240.312C293.96 238.488 295.808 237.096 297.92 236.136C300.08 235.128 302.456 234.624 305.048 234.624C307.976 234.624 310.544 235.296 312.752 236.64C314.96 237.936 316.784 239.688 318.224 241.896V235.272H326.648V271.2C326.648 274.944 325.736 278.136 323.912 280.776C322.136 283.464 319.664 285.504 316.496 286.896C313.328 288.336 309.728 289.056 305.696 289.056C301.616 289.056 298.16 288.36 295.328 286.968C292.496 285.624 290.072 283.704 288.056 281.208L293.312 276.096C294.752 277.872 296.552 279.264 298.712 280.272C300.92 281.28 303.248 281.784 305.696 281.784C307.76 281.784 309.632 281.4 311.312 280.632C313.04 279.912 314.408 278.76 315.416 277.176C316.472 275.64 317 273.648 317 271.2V266.448C315.752 268.608 313.976 270.288 311.672 271.488C309.416 272.64 307.016 273.216 304.472 273.216ZM307.712 265.512C308.768 265.512 309.776 265.344 310.736 265.008C311.696 264.672 312.584 264.216 313.4 263.64C314.216 263.064 314.936 262.392 315.56 261.624C316.184 260.808 316.664 259.992 317 259.176V250.176C316.424 248.688 315.608 247.392 314.552 246.288C313.544 245.184 312.392 244.344 311.096 243.768C309.848 243.144 308.528 242.832 307.136 242.832C305.648 242.832 304.304 243.144 303.104 243.768C301.904 244.392 300.872 245.28 300.008 246.432C299.144 247.536 298.472 248.784 297.992 250.176C297.56 251.52 297.344 252.936 297.344 254.424C297.344 255.96 297.608 257.4 298.136 258.744C298.664 260.088 299.384 261.264 300.296 262.272C301.256 263.28 302.36 264.072 303.608 264.648C304.904 265.224 306.272 265.512 307.712 265.512ZM356.369 273.72C353.297 273.72 350.537 273.216 348.089 272.208C345.641 271.152 343.553 269.712 341.825 267.888C340.145 266.064 338.849 263.976 337.937 261.624C337.025 259.272 336.569 256.8 336.569 254.208C336.569 251.568 337.025 249.072 337.937 246.72C338.849 244.368 340.145 242.28 341.825 240.456C343.553 238.632 345.641 237.216 348.089 236.208C350.537 235.152 353.297 234.624 356.369 234.624C359.441 234.624 362.177 235.152 364.577 236.208C367.025 237.216 369.113 238.632 370.841 240.456C372.569 242.28 373.865 244.368 374.729 246.72C375.641 249.072 376.097 251.568 376.097 254.208C376.097 256.8 375.641 259.272 374.729 261.624C373.865 263.976 372.569 266.064 370.841 267.888C369.161 269.712 367.097 271.152 364.649 272.208C362.201 273.216 359.441 273.72 356.369 273.72ZM346.505 254.208C346.505 256.416 346.937 258.384 347.801 260.112C348.665 261.792 349.841 263.112 351.329 264.072C352.817 265.032 354.497 265.512 356.369 265.512C358.193 265.512 359.849 265.032 361.337 264.072C362.825 263.064 364.001 261.72 364.865 260.04C365.777 258.312 366.233 256.344 366.233 254.136C366.233 251.976 365.777 250.032 364.865 248.304C364.001 246.576 362.825 245.232 361.337 244.272C359.849 243.312 358.193 242.832 356.369 242.832C354.497 242.832 352.817 243.336 351.329 244.344C349.841 245.304 348.665 246.648 347.801 248.376C346.937 250.056 346.505 252 346.505 254.208Z" fill="#232323"/>
<path d="M50.8777 33.6522L83.4569 58.0827L120.422 33.6331L103.592 73.1816L136.171 97.6121L93.1905 97.6239L76.3607 137.172L66.6271 97.6312L23.6465 97.643L60.6113 73.1934L50.8777 33.6522Z" fill="#FF6347"/>
</svg>
